<?xml version="1.0" encoding="utf-8"?>
<!-- Generator: Adobe Illustrator 26.0.3, SVG Export Plug-In . SVG Version: 6.00 Build 0)  -->
<svg version="1.0" id="katman_1" xmlns="http://www.w3.org/2000/svg" xmlns:xlink="http://www.w3.org/1999/xlink" x="0px" y="0px"
	 viewBox="0 0 600 450" style="enable-background:new 0 0 600 450;" xml:space="preserve">
<style type="text/css">
	.st0{fill-rule:evenodd;clip-rule:evenodd;fill:#010202;}
	.st1{fill:#010202;}
	.st2{fill:#E63221;}
</style>
<path class="st0" d="M198.7,195.6h-21v61.8h22.6c13.2,0,21.7-6.7,21.7-17.8c0.3-7-4.3-13.3-11.1-15.1c4.7-2.3,7.6-7.1,7.4-12.3
	C218.3,201.8,210.2,195.6,198.7,195.6z M207.9,212.8c0,5.3-4.1,8.3-9.9,8.3h-9.9v-16.5h9.9C203.8,204.6,207.9,207.5,207.9,212.8z
	 M211.2,239c0,6-4.5,9.3-11.3,9.3h-11.7v-18.4h11.6C206.7,229.9,211.3,233.3,211.2,239L211.2,239z M273.9,214.1v43.2h-10.1v-6.3
	c-3.4,4.7-8.9,7.4-14.7,7.4c-11.9,0-21.2-9.9-21.2-22.7c0-12.8,9.2-22.7,21.2-22.7c6,0,11.6,2.5,14.7,7v-6L273.9,214.1L273.9,214.1z
	 M251.2,249.2c7.2,0,13.1-5.8,13.1-13.1c0-0.1,0-0.3,0-0.4c0.2-7.2-5.5-13.2-12.7-13.4c-0.1,0-0.3,0-0.4,0c-7.4,0-13.1,6-13.1,13.5
	c-0.2,7.2,5.5,13.2,12.7,13.4C250.9,249.2,251.1,249.2,251.2,249.2L251.2,249.2z"/>
<path class="st1" d="M284.1,257.4h10.3v-22.8c0-7.4,4-12.1,10.2-12.1c6.2,0,9.7,4.1,9.7,10.8v24.1h10.3v-26
	c0-11.2-6.3-18.3-16.9-18.3c-5.3-0.2-10.4,2.4-13.3,6.8v-5.7h-10.3V257.4L284.1,257.4z"/>
<path class="st0" d="M368.2,257.4v-6.2c-3.5,4.6-9,7.3-14.7,7.2c-11.9,0-21.2-9.8-21.2-22.7c0-12.7,9.2-22.7,21.2-22.7
	c6,0,11.6,2.6,14.7,7v-24.5h10.2v61.8H368.2z M355.6,249.2c7.2,0,13.1-5.8,13.1-13.1c0-0.1,0-0.3,0-0.4c0.2-7.2-5.5-13.2-12.7-13.4
	c-0.1,0-0.2,0-0.3,0c-7.2,0-13.1,5.8-13.1,13.1c0,0.1,0,0.3,0,0.4c-0.2,7.2,5.5,13.2,12.7,13.4C355.3,249.2,355.5,249.2,355.6,249.2
	L355.6,249.2z"/>
<path class="st1" d="M401,247.5v-51.9h-10.7v61.8h34.2v-9.9H401L401,247.5z"/>
<path class="st0" d="M472.4,257.4h-10.1v-6.3c-3.4,4.7-8.9,7.4-14.7,7.4c-11.9,0-21.2-9.9-21.2-22.7c0-12.8,9.2-22.7,21.2-22.7
	c6,0,11.6,2.5,14.7,7v-6h10.1V257.4L472.4,257.4z M449.7,249.2c7.2,0,13.1-5.8,13.1-13.1c0-0.1,0-0.3,0-0.4
	c0.2-7.2-5.5-13.2-12.7-13.4c-0.1,0-0.2,0-0.3,0c-7.2,0-13.1,5.9-13.1,13.1c0,0.1,0,0.2,0,0.3c-0.2,7.2,5.5,13.2,12.7,13.4
	C449.5,249.2,449.6,249.2,449.7,249.2L449.7,249.2z M482.6,195.6v61.8h10.2v-5.9c3.5,4.6,9,7.2,14.7,7c12,0,21.2-10,21.2-22.7
	c0-12.9-9.3-22.7-21.2-22.7c-5.8,0-11.2,2.6-14.7,7.2v-24.7C492.9,195.6,482.6,195.6,482.6,195.6z M492.5,235.8
	c-0.2-7.2,5.5-13.2,12.7-13.4c0.1,0,0.3,0,0.4,0c7.2,0,13.1,5.9,13,13.1c0,0.1,0,0.2,0,0.3c0.2,7.2-5.5,13.2-12.7,13.4
	c-0.1,0-0.3,0-0.4,0c-7.2,0-13.1-5.8-13.1-13.1C492.4,236,492.4,235.9,492.5,235.8L492.5,235.8z"/>
<path class="st2" d="M108.5,244.9c-5.5,0-8.8-3.2-8.8-7.8c0-6.2,6.3-11.7,13.3-13.2l-16.3-40.3h28.5l5.2,10.1h-19.9l11.9,29
	c1,2.3,1.6,4.8,1.6,7.3C123.8,238.6,115.3,244.9,108.5,244.9L108.5,244.9z"/>
<path class="st2" d="M137.9,204.8l12.4,21.4c2.4,4.3,3.7,9.1,3.9,14c0,15.7-12.4,27-29.9,27h-23.9c-17.5,0-29.9-11.3-29.9-27
	c0.2-4.9,1.5-9.7,3.8-14l12.4-21.4h11.6L83.9,230c-1.8,3-2.8,6.5-2.9,10c0,10,6.8,17.1,19.7,17.1H124c12.9,0,19.7-7.1,19.7-17.1
	c-0.1-3.5-1.1-7-2.9-10l-14.6-25.3C126.2,204.8,137.9,204.8,137.9,204.8z"/>
</svg>
